<?xml version="1.0" encoding="utf-8"?>
<!-- Generator: Adobe Illustrator 25.2.1, SVG Export Plug-In . SVG Version: 6.00 Build 0)  -->
<svg version="1.1" id="Layer_1" xmlns="http://www.w3.org/2000/svg" xmlns:xlink="http://www.w3.org/1999/xlink" x="0px" y="0px"
	 viewBox="0 0 1080 1080" style="enable-background:new 0 0 1080 1080;" xml:space="preserve">
<style type="text/css">
	.st0{fill:#FFFFFF;}
</style>
<g>
	<path class="st0" d="M1040.03,726.28V470.25c0-0.04,0-0.08,0-0.11c-0.08-73.73-60.11-133.73-133.95-133.75
		c-73.78,0.02-133.83,60.07-133.86,133.9v121.65c0,73.83,60.07,133.9,133.9,133.9c31.78,0,62.06-11.09,86.17-31.4l0,32.15
		c-0.04,46.67-40.52,86.1-88.4,86.1c-26.43,0-52.76-12.02-68.73-31.36c-0.05-0.06-0.1-0.11-0.14-0.17
		c-4.56-5.49-11.23-8.63-18.36-8.63c-13.16,0-23.87,10.71-23.87,23.87c0,5.45,1.9,10.79,5.34,15.03c0.04,0.06,0.09,0.12,0.13,0.17
		c25.18,30.57,64.67,48.82,105.63,48.82c75.07,0,136.14-60.07,136.14-133.9C1040.04,726.43,1040.03,726.36,1040.03,726.28z
		 M992.29,470.29v121.65c0,47.51-38.65,86.17-86.17,86.17s-86.17-38.65-86.17-86.2V470.29c0-47.51,38.65-86.17,86.17-86.17
		S992.29,422.77,992.29,470.29z"/>
	<path class="st0" d="M568.13,336.38c-73.89,0-134.04,60.1-134.1,133.98c0,0.04,0,0.08,0,0.12v220.39c0,13.18,10.72,23.9,23.9,23.9
		c13.18,0,23.9-10.72,23.9-23.91V470.48c0-47.58,38.71-86.29,86.29-86.29s86.29,38.71,86.29,86.29v220.39
		c0,13.18,10.72,23.9,23.9,23.9c13.18,0,23.9-10.72,23.9-23.9V470.48v-0.05C702.2,396.52,642.04,336.38,568.13,336.38z"/>
	<path class="st0" d="M238.15,361.04c-0.08-0.06-0.16-0.12-0.24-0.18c-0.01-0.01-0.43-0.29-0.44-0.3
		c-22.57-15.8-49.1-24.16-76.39-24.16c-0.01,0-0.02,0-0.03,0c-0.12-0.01-0.31-0.02-0.43-0.02c0,0,0,0,0,0
		c-69.84,0.02-120.55,56.39-120.57,133.76c-0.01,0.11-0.01,0.23-0.01,0.34v220.39c0,13.18,10.72,23.9,23.9,23.9
		s23.9-10.72,23.9-23.9V470.48c0-52.42,28.58-86.29,72.82-86.29c18,0,35.24,5.48,49.87,15.86c0.09,0.07,0.19,0.13,0.28,0.18
		c3.96,2.67,8.56,4.07,13.33,4.07c13.18,0,23.91-10.72,23.91-23.91C248.05,372.75,244.36,365.53,238.15,361.04z"/>
	<path class="st0" d="M330.11,357.54c-13.15,0-23.85,10.7-23.85,23.85v309.6c0,13.15,10.7,23.85,23.85,23.85
		c13.15,0,23.85-10.7,23.85-23.85v-309.6C353.96,368.23,343.26,357.54,330.11,357.54z"/>
	<path class="st0" d="M329.72,220.14c-20.66,0-37.47,16.81-37.47,37.47c0,20.66,16.81,37.46,37.47,37.46
		c20.66,0,37.46-16.81,37.46-37.46C367.19,236.95,350.38,220.14,329.72,220.14z"/>
</g>
</svg>
